<svg width="512" height="512" 
    xmlns="http://www.w3.org/2000/svg">
    <path d="M96 338.82c.99-2.68 2.2-5.55 3.35-8.64 1.17-3.09 2.52-6.25 3.88-9.49a592.91 592.91 0 018.6-19.7 7.7 7.7 0 012.45-3.34 6.07 6.07 0 013.46-.92 7.17 7.17 0 012.85.6c.33.12.64.28.94.46l.46.26a67.94 67.94 0 012.48 4.95c1 2.2 2.2 4.67 3.29 7.39 1.1 2.72 2.39 5.59 3.62 8.55 1.22 2.96 2.38 5.78 3.44 8.44l2.82 7.05c.8 2.04 1.36 3.51 1.67 4.39h-7.9c-.19-.49-.45-1.14-.76-2.02l-1.05-2.85-1.16-3.09-1.08-2.74h-20.12a321.57 321.57 0 00-4.07 10.7H96zm28.87-16.97c-.55-1.49-1.19-3.11-1.91-4.89-.72-1.77-1.43-3.5-2.2-5.19-.76-1.69-1.33-3.24-1.97-4.65l-1.44-3.15a288.22 288.22 0 00-3.73 8.28c-.68 1.58-1.34 3.18-2.01 4.8-.68 1.62-1.32 3.25-1.93 4.8h15.19zm23.12-17.53h-11.97c-2.34 0-3.53-1.08-3.53-3.22 0-.7.12-1.4.38-2.06.15-.42.33-.83.52-1.23h34.15c2.34 0 3.53 1.07 3.53 3.22a6.07 6.07 0 01-.9 3.29h-15v34.5H148v-34.5zm17.7 34.5c1.02-2.68 2.2-5.55 3.36-8.64 1.16-3.09 2.52-6.25 3.88-9.49a592.92 592.92 0 018.6-19.7 7.7 7.7 0 012.45-3.34 6.14 6.14 0 013.46-.92 7.17 7.17 0 012.85.6c.33.12.64.28.94.46l.46.26a67.94 67.94 0 012.48 4.95c1 2.2 2.2 4.67 3.29 7.39 1.1 2.72 2.39 5.59 3.61 8.55a594.9 594.9 0 013.45 8.44l2.78 7.05c.79 2.04 1.36 3.51 1.66 4.39h-7.89c-.2-.49-.46-1.14-.76-2.02l-1.06-2.85-1.16-3.09-1.07-2.74h-20.08a321.57 321.57 0 00-4.07 10.7h-7.17zm28.94-16.97a240.9 240.9 0 00-1.93-4.89c-.72-1.77-1.42-3.5-2.19-5.19-.77-1.69-1.34-3.24-1.97-4.65-.64-1.4-1.1-2.43-1.45-3.15-.53 1.11-1.1 2.39-1.73 3.79-.64 1.4-1.32 2.91-2 4.5l-1.88 4.8c-.68 1.64-1.32 3.24-1.93 4.8h15.08zm18.65 16.97c0-1.03.11-2.52.22-4.39.11-1.86.22-4.14.35-6.57.13-2.44.29-4.91.42-7.54s.28-5.1.41-7.52c.14-2.41.29-4.6.4-6.58.1-1.97.22-3.41.3-4.38a3.64 3.64 0 011.43-3.05c.89-.6 1.93-.9 3-.9a7.28 7.28 0 013.05.55c.61.24 1.18.58 1.67 1.01l2.19 4.39 3.15 6.24c1.14 2.2 2.2 4.56 3.42 6.8a67.51 67.51 0 012.83 5.56l2.54-5.06c1.03-2.02 2.04-4.03 3.05-6.1 1-2.05 1.97-3.98 2.87-5.8.9-1.82 1.6-3.22 2.06-4.2a6.82 6.82 0 012.2-2.64 5.44 5.44 0 013.21-.9c1-.02 2 .13 2.94.44.54.16 1.05.42 1.5.77 0 1.1.17 2.72.3 4.84.13 2.13.24 4.39.37 7.02s.29 5.26.46 8.06c.18 2.8.3 5.5.48 8.07.18 2.56.29 4.9.38 7.01.08 2.1.2 3.68.28 4.8h-7.14c0-.63 0-1.73-.2-3.3-.2-1.59-.18-3.4-.29-5.49-.1-2.08-.24-4.25-.37-6.57l-.35-6.58c-.1-2.2-.24-3.86-.33-5.43l-.2-3.25c-.37.7-.85 1.67-1.44 2.85l-1.95 3.92c-.7 1.43-1.43 2.9-2.2 4.39l-2.19 4.38c-.7 1.43-1.33 2.74-1.9 3.97-.57 1.23-1.05 2.19-1.4 2.9H233a80.3 80.3 0 00-2.07-4.4l-2.96-6.06c-1.05-2.2-2.2-4.39-3.18-6.4-.99-2.02-2-3.95-2.83-5.5 0 .96 0 2.19-.22 3.8-.22 1.63-.2 3.38-.28 5.34-.09 1.95-.22 3.98-.33 6.07-.11 2.08-.24 4.12-.33 6.07-.09 1.95-.2 3.72-.28 5.32-.1 1.6-.14 2.87-.18 3.82l-7.06.22zm51.88-36.94c0-2.71 1.45-4.07 4.39-4.07h22.94c2.4 0 3.58 1.07 3.58 3.22.01.7-.1 1.4-.35 2.06-.15.43-.33.84-.55 1.23h-22.78v10.28h19.25c2.37 0 3.53 1.1 3.53 3.24a6.16 6.16 0 01-.88 3.29h-21.92v11.18h23.35v6.57h-30.56v-37zm44.12 20.02v16.92h-7.06V301.1c0-2.2 1.17-3.18 3.53-3.18.74 0 1.48.08 2.2.24.65.17 1.07.28 1.29.37v17.03h2.43a9.27 9.27 0 004.17-.8 9.73 9.73 0 003.02-2.35 40.9 40.9 0 004.2-5.7c1.06-1.73 2-3.27 2.86-4.56.72-1.13 1.6-2.14 2.6-3.03a5.08 5.08 0 013.4-1.14c.87-.03 1.74.12 2.55.44.58.25 1.13.57 1.64.94-1.36 2.2-2.92 4.5-4.7 7.15a393.36 393.36 0 01-5.58 8.1 25.4 25.4 0 01-1.8 2.2c-.57.67-1.2 1.27-1.9 1.8l3.77 4.38c1.31 1.54 2.63 3.33 3.94 5.09a131.3 131.3 0 013.81 5.34c1.23 1.82 2.42 3.58 3.49 5.29h-8.2c-.92-1.38-1.9-2.85-2.98-4.39-1.07-1.53-2.19-3.02-3.35-4.51a236.07 236.07 0 00-3.5-4.39 97.79 97.79 0 00-3.45-3.96c-.55 0-1.12.15-1.69.2-.61.03-1.23.03-1.84 0l-2.85.24zm32.92-20.02c0-2.71 1.47-4.07 4.39-4.07h22.94c2.4 0 3.6 1.07 3.6 3.22 0 .7-.12 1.4-.37 2.06-.15.42-.33.83-.53 1.23h-22.77v10.28h19.24c2.35 0 3.53 1.1 3.53 3.24a6.16 6.16 0 01-.9 3.29h-21.92v11.18h23.3v6.57h-30.5v-37zm37.79-.78a2.9 2.9 0 011.03-2.48 4.16 4.16 0 012.74-.81c.74-.02 1.48.09 2.2.3l1.26.42v15.72h21.04V301.1c-.08-.94.29-1.86.99-2.48a4.1 4.1 0 012.72-.81 7.25 7.25 0 013.44.79v40.22h-7.1v-18.06h-21.04v18.06h-7.13L380 301.1zM255.3 202.7l-1.1.77-2.6 1.67a9.6 9.6 0 01-9.62 1.03c-4.18-1.64-7.67-7.12-4.18-9.64l2.01-1.54.08.11.14-.1h-.1c1.2 1.57 2.15 2.69 3.02 3.41a10.7 10.7 0 00.55.42c1.88 1.24 3.46.51 6.46-1.5 4.25-2.86 5.13-5.34 2.2-10.18-1.01-1.86-2.37-3.5-4-4.85-1-.7-2.27-.89-3.44-.5a42.17 42.17 0 00-14.05 8.46c-5.76 4.9-7.84 9.44-6.79 17.53a11.8 11.8 0 001 3.4 8.44 8.44 0 004.5 3.83l-.48-.12.37.18a11.66 11.66 0 018.07 7.33c.42.97.8 1.95 1.12 2.96.26.94.52 1.97.78 2.96a9.56 9.56 0 01-1.95 9.25c-1.67 2.06-4.55 3.46-6.9 3.43-1.71.02-3.17-.69-3.73-2.42-.26-.8-.54-1.58-.83-2.4a18.04 18.04 0 002.2-.78c.9-.34 1.75-.8 2.54-1.38l.33-.2c1.52-1.38 1.26-3.12.32-6.4-1.4-4.93-3.48-6.58-9.03-5.17-2.06.36-4.04 1.1-5.83 2.19a3.81 3.81 0 00-1.51 3.09 42.32 42.32 0 003.68 16c2.87 7 6.58 10.39 14.47 11.84 1.31.2 2.47.26 3.53.1a8.41 8.41 0 005.1-3.1l-.19.3.3-.32a11.6 11.6 0 019.28-5.3h.69c.83-.02 1.67-.02 2.5 0l3.07.18a9.58 9.58 0 018.2 4.7c2.5 3.68 2.2 10.25-2.2 10.25h-2.51a44.9 44.9 0 00-.2-3.2 10.5 10.5 0 00-.44-1.82l-.06-.3c-.82-2-2.52-2.34-6.05-2.48-5.13-.18-7.3 1.31-7.72 7-.28 2.07-.16 4.18.35 6.22a3.81 3.81 0 002.46 2.43 42.35 42.35 0 0016.35 1.42c5.93-.46 9.9-2.1 13.2-6.22l.17-.26a31.1 31.1 0 002.34-3.66 8.37 8.37 0 000-8.99 11.62 11.62 0 01-2.31-10.72c.28-1.03.63-2.06.98-3.05.35-.98.72-1.9 1.11-2.87a9.56 9.56 0 017.02-6.33c3.06-.8 6.92.13 8.5 2.15.74.88 1.03 1.98.62 3.24-.27.81-.49 1.62-.75 2.41a48.31 48.31 0 00-2.52-.68l-1.01-.2a10.96 10.96 0 00-1.53-.1c-2.31.07-3.18 1.58-4.43 5-1.75 4.81-1 7.34 4.38 9.5 1.9.9 3.94 1.45 6.03 1.6a3.9 3.9 0 003.05-1.6 42.21 42.21 0 006.31-15.12c1.33-5.48 1.11-9.6-1.4-13.78l-.68-.9a25.62 25.62 0 00-2.74-3.36 8.42 8.42 0 00-8.62-2.77h-.02a11.66 11.66 0 01-10.72-1.1c-.9-.6-1.75-1.23-2.58-1.9-.83-.65-1.6-1.26-2.4-1.92a9.64 9.64 0 01-3.94-8.72c.25-4.06 3.8-8.74 7.09-7.41.28.1.57.25.85.44.68.5 1.4.96 2.08 1.44a42.96 42.96 0 00-1.64 2.57 11.88 11.88 0 00-.9 2.04c-.59 2.17.59 3.43 3.42 5.65 4.36 3.42 6.57 3.24 10.34-1.1 1.45-1.51 2.6-3.3 3.4-5.23a3.86 3.86 0 00-.53-3.4c-3.38-4.35-7.58-8.01-12.36-10.76-6.42-3.95-11.4-4.54-18.65-1.08-3.66 1.89-5.24 4-5.41 9.1l-.06-.07a11.73 11.73 0 01-4.37 8.29c-.5.38-.98.75-1.48 1.1zm-38.8 13.43c-.81-5.52-.8-11.13.04-16.65a25.56 25.56 0 019.33-14.86c.46-.38.93-.77 1.42-1.15a48.48 48.48 0 0115.55-8.8 10.8 10.8 0 019.6 1.58 23.1 23.1 0 013.8 3.73v-.02a55.56 55.56 0 0115.77-5.3c6.02-.6 12.06.95 17.05 4.38a48.4 48.4 0 0114.71 13 10.8 10.8 0 011.45 9.61c-.6 1.7-1.4 3.3-2.38 4.8a55.47 55.47 0 019.85 13.3 25.53 25.53 0 011.1 17.54c-.1.41-.2.83-.32 1.25a47.89 47.89 0 01-7.5 16.75 10.78 10.78 0 01-8.77 4.38c-1.77-.07-3.51-.34-5.2-.8a55.6 55.6 0 01-9.6 13.45 25.62 25.62 0 01-16.46 6.64c-6.57.74-13.22.1-19.53-1.86a10.78 10.78 0 01-6.84-6.93c-.5-1.71-.8-3.47-.89-5.24a55.76 55.76 0 01-15.79-5 25.6 25.6 0 01-11.22-13.56 48.06 48.06 0 01-4.25-19.16c0-3.41 1.63-6.62 4.38-8.63 1.48-1 3.05-1.82 4.7-2.45z" fill="#9FA9B7" fill-rule="nonzero"/>
</svg>