<svg width="512" height="512" xmlns="http://www.w3.org/2000/svg"><path d="M327.73 213.14c23.28-25.48 54.45-52.75 93.52-81.78-46.3 39.45-68.28 79.09-65.94 118.9 2.33 39.82 25.91 72.22 70.74 97.2-43.38-20.37-77.62-28.58-102.71-24.66-25.1 3.93-48.42 22.8-69.96 56.6 3.78-24.37 9.1-46.78 15.95-67.2-19.82 22.77-44.81 47.09-74.97 72.96 43.43-42.6 62.59-83.66 57.49-123.22-5.11-39.56-30.9-70.23-77.36-92.02 44.7 17.28 79.42 23.1 104.19 17.42 24.76-5.66 46.7-26.11 65.84-61.34-2.72 32.25-8.32 61.3-16.79 87.14zM86 248.04h35.78v8.85H96.52v10.25h23.18v8.17H96.52v11.73h25.8v8.84H86v-47.84zm53.94 21.64h11.52c2.41 0 4.22-.53 5.43-1.6 1.2-1.08 1.8-2.82 1.8-5.23 0-2.32-.6-4-1.8-5.06-1.21-1.05-3.02-1.57-5.43-1.57h-11.53v13.46zm-10.52-21.64h25.8c2.14 0 4.07.35 5.79 1.04 1.72.7 3.19 1.64 4.42 2.85 1.23 1.2 2.16 2.6 2.81 4.19.65 1.58.97 3.3.97 5.12 0 2.82-.59 5.25-1.77 7.3-1.19 2.06-3.12 3.62-5.8 4.7v.13a8.11 8.11 0 015.3 4.25c.53 1 .92 2.11 1.17 3.32.24 1.2.41 2.41.5 3.62.05.76.09 1.65.13 2.68.05 1.03.13 2.08.24 3.15.11 1.07.29 2.09.54 3.05.24.96.61 1.77 1.1 2.44H160.1a18.55 18.55 0 01-1.07-5.43 81 81 0 00-.6-6.03c-.36-2.5-1.12-4.33-2.28-5.49-1.16-1.16-3.06-1.74-5.7-1.74h-10.51v18.7h-10.52v-47.85zm82.94 42.41a15.77 15.77 0 01-6.23 5.06 17.63 17.63 0 01-6.9 1.44c-3.66 0-6.96-.63-9.88-1.9a21.18 21.18 0 01-7.4-5.27 23.28 23.28 0 01-4.63-7.87 28.9 28.9 0 01-1.6-9.75c0-3.57.53-6.89 1.6-9.95a23.9 23.9 0 014.62-8 21.14 21.14 0 017.4-5.36 24.16 24.16 0 019.89-1.95c2.46 0 4.84.37 7.14 1.11 2.3.74 4.37 1.82 6.23 3.25a17.8 17.8 0 014.59 5.3c1.2 2.1 1.94 4.5 2.2 7.23h-10.04c-.63-2.68-1.83-4.7-3.62-6.03a10.52 10.52 0 00-6.5-2.01c-2.37 0-4.38.46-6.03 1.37-1.65.92-3 2.15-4.02 3.69a16.15 16.15 0 00-2.24 5.26 26.18 26.18 0 000 11.96c.46 1.9 1.21 3.6 2.24 5.12a11.5 11.5 0 004.02 3.65c1.65.92 3.66 1.38 6.03 1.38 3.48 0 6.18-.89 8.07-2.65 1.9-1.76 3-4.32 3.32-7.67h-10.59v-7.84h20.1v25.86h-6.7l-1.07-5.43z" fill="#9FA9B7" fill-rule="evenodd"/></svg>