<svg width="512" height="512" xmlns="http://www.w3.org/2000/svg"><path d="M127.44 261.41a16.19 16.19 0 003.98 4.2 15.13 15.13 0 005.35 2.27V270c-3.39-.21-7.63-.32-12.72-.32-3.81 0-7.45.1-10.91.32v-2.12c1.7-.07 2.93-.28 3.7-.64.78-.35 1.17-.88 1.17-1.59 0-.7-.35-1.55-1.06-2.54l-15.48-23.32c-2.04-3.1-3.78-5.14-5.19-6.1-1.41-.95-3.4-1.5-5.94-1.64v26.71c0 2.69.22 4.63.64 5.83a3.81 3.81 0 002.39 2.44c1.16.43 3.02.7 5.56.85V270a219.4 219.4 0 00-13.46-.32c-6.08 0-10.6.1-13.57.32v-2.12c2.55-.14 4.4-.42 5.57-.85a3.81 3.81 0 002.38-2.44c.43-1.2.64-3.14.64-5.83V206.2c0-2.69-.21-4.63-.64-5.83a3.81 3.81 0 00-2.38-2.44c-1.17-.42-3.02-.7-5.57-.85v-2.12c2.97.21 7.5.32 13.57.32 5.65 0 10.14-.1 13.46-.32v2.12c-2.54.14-4.4.43-5.56.85a3.81 3.81 0 00-2.39 2.44c-.42 1.2-.64 3.14-.64 5.83v23.74c5.16-.21 9.2-2.19 12.09-5.93l10.17-12.94c3.6-4.45 5.41-7.84 5.41-10.17 0-2.48-2.19-3.75-6.57-3.82v-2.12c4.03.21 8.09.32 12.19.32 3.89 0 6.89-.1 9-.32v2.12a18.9 18.9 0 00-6.56 2.28 20.58 20.58 0 00-5.94 5.46l-17.28 22.15 24.6 34.45zm69.54-.31c1.7 4.38 4.13 6.64 7.31 6.78V270c-2.82-.21-6.6-.32-11.34-.32-6.07 0-10.6.1-13.56.32v-2.12c2.68-.14 4.6-.48 5.77-1 1.17-.54 1.75-1.5 1.75-2.92 0-1.2-.42-2.86-1.27-4.98l-6.47-17.39h-25.65l-4.34 11.24c-1.42 3.81-2.13 6.71-2.13 8.69 0 2.2.76 3.78 2.28 4.77 1.52.99 3.84 1.52 6.95 1.59V270c-4.03-.21-8.1-.32-12.2-.32-3.17 0-5.82.1-7.94.32v-2.12c3.53-.85 6.32-3.92 8.37-9.22l24.91-64.24h1.7l25.86 66.68zm-18.66-21.63l-11.87-31.7-12.08 31.7h23.95zm93.18 25.23c-1.63 2.4-3.25 4.13-4.88 5.2-1.62 1.05-3.78 1.58-6.46 1.58-2.9 0-5.29-.84-7.16-2.54-1.87-1.7-3.27-4.66-4.19-8.9l-2.33-10.6a71.05 71.05 0 00-2.38-8.48 10.92 10.92 0 00-3.34-4.77c-1.49-1.2-3.57-1.8-6.25-1.8h-10.07v24.37c0 2.69.2 4.63.63 5.83a3.81 3.81 0 002.39 2.44c1.16.43 3.02.7 5.56.85V270a219.4 219.4 0 00-13.46-.32c-6.08 0-10.6.1-13.57.32v-2.12c2.55-.14 4.4-.42 5.57-.85a3.81 3.81 0 002.38-2.44c.43-1.2.64-3.14.64-5.83V206.2c0-2.69-.21-4.63-.64-5.83a3.81 3.81 0 00-2.38-2.44c-1.17-.42-3.02-.7-5.57-.85v-2.12c2.97.21 7.28.32 12.93.32l11.45-.1c1.34-.08 2.86-.11 4.56-.11 8.2 0 14.5 1.71 18.92 5.14 4.42 3.43 6.63 7.86 6.63 13.3 0 2.76-.66 5.53-1.97 8.32-1.3 2.8-3.5 5.3-6.57 7.53-3.07 2.23-7.08 3.73-12.03 4.5l1.27.22c4.67.77 8.06 2.19 10.18 4.24 2.12 2.05 3.67 5.3 4.66 9.75l2.65 10.81c.71 3.25 1.45 5.51 2.23 6.78.78 1.28 1.84 1.91 3.18 1.91 1.2 0 2.2-.32 3.02-.95.81-.64 1.75-1.66 2.8-3.08l1.6 1.17zm-39.22-67.63c-2.2 0-3.83.25-4.93.74a4.2 4.2 0 00-2.28 2.65c-.42 1.28-.63 3.18-.63 5.73v26.07h7.1c7 0 11.8-1.55 14.41-4.66 2.62-3.1 3.93-7.42 3.93-12.93 0-5.8-1.38-10.18-4.14-13.15-2.76-2.96-7.24-4.45-13.46-4.45zm69.43 0c-2.55.14-4.4.43-5.57.85a3.81 3.81 0 00-2.38 2.44c-.43 1.2-.64 3.14-.64 5.83v52.57c0 2.69.21 4.63.64 5.83a3.81 3.81 0 002.38 2.44c1.17.43 3.02.7 5.57.85V270a219.4 219.4 0 00-13.46-.32c-6.08 0-10.6.1-13.57.32v-2.12c2.54-.14 4.4-.42 5.56-.85a3.81 3.81 0 002.39-2.44c.42-1.2.63-3.14.63-5.83V206.2c0-2.69-.2-4.63-.63-5.83a3.81 3.81 0 00-2.39-2.44c-1.16-.42-3.02-.7-5.56-.85v-2.12c2.97.21 7.49.32 13.57.32 5.65 0 10.14-.1 13.46-.32v2.12zm75.47 0c-2.47.14-4.31.51-5.51 1.12a4.7 4.7 0 00-2.44 2.96c-.42 1.38-.63 3.41-.63 6.1v63.28h-2.44l-44.52-68.8v55.97c0 2.76.23 4.8.69 6.15a4.79 4.79 0 002.7 2.92c1.34.6 3.43.97 6.25 1.11V270c-2.54-.21-6.14-.32-10.8-.32-4.25 0-7.53.1-9.87.32v-2.12c2.48-.14 4.31-.51 5.51-1.11a4.7 4.7 0 002.44-2.97c.43-1.38.64-3.41.64-6.1V206.2c0-2.69-.21-4.63-.64-5.83a3.81 3.81 0 00-2.38-2.44c-1.17-.42-3.02-.7-5.57-.85v-2.12c2.34.21 5.62.32 9.86.32 3.18 0 5.94-.1 8.27-.32l37.42 57.67v-45.37c0-2.76-.23-4.8-.7-6.15a4.79 4.79 0 00-2.7-2.91c-1.34-.6-3.42-.98-6.25-1.12v-2.12c2.55.21 6.15.32 10.81.32 4.24 0 7.53-.1 9.86-.32v2.12zm62.54 59.36c0 4.03.25 8.55.74 13.57-4.8-.21-12.9-.32-24.27-.32-13.57 0-23.82.1-30.74.32v-2.12c2.54-.14 4.4-.42 5.56-.85a3.81 3.81 0 002.39-2.44c.42-1.2.64-3.14.64-5.83V206.2c0-2.69-.22-4.63-.64-5.83a3.81 3.81 0 00-2.39-2.44c-1.16-.42-3.02-.7-5.56-.85v-2.12c6.92.21 17.17.32 30.74.32 10.39 0 17.77-.1 22.15-.32-.5 4.67-.74 8.84-.74 12.51 0 2.76.1 4.95.32 6.57h-2.44c-.5-4.6-1.13-8-1.9-10.23a8.55 8.55 0 00-3.93-4.87c-1.84-1.03-4.63-1.54-8.37-1.54h-8.8c-2.55 0-4.4.2-5.57.58a3.66 3.66 0 00-2.38 2.39c-.43 1.2-.64 3.14-.64 5.83v25.01h7c2.47 0 4.38-.58 5.72-1.74a8.55 8.55 0 002.7-4.14c.47-1.59.84-3.59 1.12-5.99l.32-2.12h2.44c-.22 2.97-.32 6.3-.32 9.97v5.08c0 3.6.2 8.63.63 15.06h-2.44l-.63-5.14c-.35-2.94-1.33-5.15-2.92-6.63-1.59-1.48-3.8-2.23-6.62-2.23h-7v25.44c0 2.69.21 4.63.64 5.83.42 1.2 1.22 2 2.38 2.39 1.17.39 3.02.58 5.57.58h7.74c4.38 0 7.72-.58 10.01-1.75a10.52 10.52 0 005.04-5.62c1.06-2.57 1.84-6.37 2.33-11.39h2.44c-.21 1.9-.32 4.45-.32 7.63zm-14.95-84.59a6.07 6.07 0 013.19-1.06c1.34 0 2.43.6 3.28 1.8.43.64.64 1.31.64 2.02 0 1.55-.96 2.93-2.87 4.13-1.48.92-4.02 2.05-7.63 3.4-5.3 2.12-9.85 4.13-13.67 6.04l-.74-1.38c2.9-2.2 5.39-4.22 7.47-6.1 2.08-1.87 3.37-3.02 3.87-3.44a52.76 52.76 0 016.46-5.4zm-340.91 118c5.2 0 9.08 1.3 11.66 3.9 2.58 2.6 3.87 6.37 3.87 11.33 0 3.2-.63 6-1.89 8.4a13.2 13.2 0 01-5.48 5.57 17.6 17.6 0 01-8.56 1.96l-2.55-.04a83.14 83.14 0 00-9.06.04v-.88a8.76 8.76 0 002.3-.35c.5-.18.82-.52 1-1.01.17-.5.26-1.3.26-2.42V294.5c0-1.11-.09-1.92-.26-2.42-.18-.5-.5-.83-1-1.01a8.76 8.76 0 00-2.3-.35v-.88c1.02.09 2.45.13 4.27.13l3.74-.04c2-.06 3.33-.1 4-.1zm-1.1.8c-.9 0-1.6.1-2.05.3-.45.21-.77.58-.94 1.1a8 8 0 00-.27 2.38v22a8 8 0 00.27 2.38c.17.53.49.9.94 1.1.46.2 1.16.3 2.1.3 3.1 0 5.55-.56 7.34-1.69a8.97 8.97 0 003.76-4.95c.72-2.17 1.08-4.94 1.08-8.31 0-3.38-.4-6.13-1.19-8.25a8.99 8.99 0 00-3.85-4.78c-1.77-1.05-4.17-1.58-7.19-1.58zm42.63 24.73c0 1.67.1 3.55.31 5.63-2-.09-5.35-.13-10.08-.13-5.63 0-9.88.04-12.76.13v-.88a8.76 8.76 0 002.31-.35c.49-.18.82-.52 1-1.01.17-.5.26-1.3.26-2.42V294.5c0-1.11-.09-1.92-.27-2.42-.17-.5-.5-.83-.99-1.01a8.76 8.76 0 00-2.3-.35v-.88a453.63 453.63 0 0021.95 0c-.2 1.93-.3 3.66-.3 5.19 0 1.14.04 2.05.12 2.73h-1c-.21-1.9-.48-3.32-.8-4.25a3.55 3.55 0 00-1.63-2.02c-.76-.43-1.92-.64-3.47-.64h-3.66c-1.05 0-1.82.08-2.3.24-.49.16-.82.5-1 1-.17.5-.26 1.3-.26 2.41v10.39h2.9c1.03 0 1.82-.25 2.38-.73.56-.48.93-1.06 1.12-1.72.2-.66.35-1.48.46-2.48l.14-.88h1a58.51 58.51 0 00-.12 4.13v2.12c0 1.5.08 3.57.26 6.24h-1.01l-.27-2.13a4.33 4.33 0 00-1.2-2.75 3.87 3.87 0 00-2.76-.92h-2.9v10.56c0 1.11.09 1.92.26 2.42.18.5.51.82 1 .99.48.16 1.25.24 2.3.24h3.22c1.81 0 3.2-.24 4.15-.73a4.37 4.37 0 002.1-2.33c.43-1.07.76-2.65.96-4.73h1.01c-.08.8-.13 1.85-.13 3.17zm13.29-26c1.29 0 2.3.13 3.05.41.75.28 1.52.68 2.31 1.21.65.41 1.15.62 1.5.62.26 0 .47-.16.62-.46.14-.31.26-.8.35-1.48h1.01c-.15 1.7-.22 4.7-.22 8.98h-1.01a11.4 11.4 0 00-2.05-6c-1.19-1.64-2.9-2.45-5.17-2.45-1.58 0-2.87.48-3.87 1.43s-1.5 2.18-1.5 3.67c0 1.12.26 2.09.77 2.9a7.67 7.67 0 001.96 2.12c.8.59 1.92 1.33 3.39 2.24l1.28.8a44.05 44.05 0 014.37 3.01c1.07.87 1.93 1.86 2.58 2.97.64 1.11.97 2.42.97 3.92 0 2.67-.88 4.73-2.64 6.18-1.76 1.45-4 2.18-6.7 2.18-1.4 0-2.55-.15-3.45-.44-.9-.3-1.75-.7-2.57-1.2-.65-.4-1.14-.6-1.5-.6-.26 0-.47.15-.61.45-.15.31-.27.8-.35 1.48h-1.02c.12-1.62.18-5.14.18-10.56h1.01c.2 2.96.94 5.37 2.2 7.21 1.26 1.85 3.2 2.78 5.81 2.78a5.9 5.9 0 004.05-1.48c1.11-.98 1.67-2.44 1.67-4.38a5.8 5.8 0 00-1.65-4.18 26.36 26.36 0 00-5.21-3.87c-1.73-1.05-3.14-2-4.2-2.81a10.14 10.14 0 01-2.62-2.97 7.94 7.94 0 01-1.02-4.07c0-2.47.8-4.35 2.38-5.66a8.96 8.96 0 015.9-1.96zm25.16 1.36a8.76 8.76 0 00-2.31.35c-.48.18-.81.51-.99 1.01-.18.5-.26 1.3-.26 2.42v21.83c0 1.11.08 1.92.26 2.42s.5.83.99 1c.48.18 1.25.3 2.31.36v.88a91.07 91.07 0 00-5.59-.13c-2.52 0-4.4.04-5.63.13v-.88a8.76 8.76 0 002.31-.35c.48-.18.81-.52.99-1.01.18-.5.26-1.3.26-2.42V294.5c0-1.11-.08-1.92-.26-2.42s-.5-.83-.99-1.01a8.76 8.76 0 00-2.31-.35v-.88c1.23.09 3.1.13 5.63.13 2.35 0 4.21-.04 5.59-.13v.88zm17.64-1.5c1.73 0 3.15.24 4.27.73 1.11.48 2.33 1.2 3.65 2.13.38.3.67.44.88.44.56 0 .92-.9 1.1-2.68h1.01c-.12 1.9-.17 5.28-.17 10.12h-1.02a35.64 35.64 0 00-.83-3.85 7.51 7.51 0 00-1.37-2.66 8.86 8.86 0 00-3.32-2.51 10.3 10.3 0 00-4.29-.93 7.6 7.6 0 00-5.1 1.9 12 12 0 00-3.39 5.39 25.4 25.4 0 00-1.19 8.16c0 5.28.85 9.14 2.53 11.6 1.69 2.44 4.34 3.67 7.94 3.67 1.76 0 3.29-.46 4.58-1.37.53-.35.87-.7 1.03-1.03.17-.34.25-.8.25-1.39v-4.22c0-1.23-.12-2.13-.36-2.69a1.99 1.99 0 00-1.23-1.14c-.58-.2-1.54-.34-2.86-.4v-.88a113.6 113.6 0 0010.78 0v.88c-.67.06-1.16.18-1.47.36-.31.17-.52.5-.62 1-.1.5-.15 1.31-.15 2.43V321h-.88a5.54 5.54 0 00-.35-1.7c-.2-.54-.49-.8-.84-.8-.18 0-.35.04-.53.12-.17.1-.48.3-.92.62a10.79 10.79 0 01-6.86 2.38c-3.03 0-5.62-.63-7.77-1.87a12.26 12.26 0 01-4.95-5.4 19 19 0 01-1.72-8.4c0-3.34.61-6.28 1.83-8.82a13.82 13.82 0 015.04-5.85 13.3 13.3 0 017.3-2.05zm43.47 1.5a6.14 6.14 0 00-2.29.46c-.5.25-.84.66-1.01 1.23a9.15 9.15 0 00-.27 2.53v26.27h-1l-18.49-28.56v23.24c0 1.14.1 2 .29 2.55.19.56.56.96 1.12 1.2.56.26 1.42.41 2.6.47v.88a57.79 57.79 0 00-4.5-.13c-1.75 0-3.12.04-4.08.13v-.88a6.14 6.14 0 002.28-.46c.5-.25.84-.66 1.02-1.23.17-.58.26-1.42.26-2.53V294.5c0-1.11-.09-1.92-.26-2.42-.18-.5-.51-.83-1-1.01a8.76 8.76 0 00-2.3-.35v-.88c.96.09 2.33.13 4.09.13 1.32 0 2.46-.04 3.43-.13l15.53 23.93v-18.83c0-1.14-.1-2-.28-2.55-.2-.56-.57-.96-1.13-1.21a7.69 7.69 0 00-2.6-.46v-.88c1.06.09 2.56.13 4.5.13 1.76 0 3.12-.04 4.09-.13v.88zm24.8 0a8.76 8.76 0 00-2.3.35c-.49.18-.82.51-1 1.01-.17.5-.26 1.3-.26 2.42v21.83c0 1.11.09 1.92.27 2.42.17.5.5.83.99 1 .48.18 1.25.3 2.3.36v.88a91.07 91.07 0 00-5.58-.13c-2.52 0-4.4.04-5.63.13v-.88a8.76 8.76 0 002.3-.35c.49-.18.82-.52 1-1.01.17-.5.26-1.3.26-2.42V294.5c0-1.11-.09-1.92-.26-2.42-.18-.5-.51-.83-1-1.01a8.76 8.76 0 00-2.3-.35v-.88c1.23.09 3.1.13 5.63.13 2.34 0 4.2-.04 5.59-.13v.88zm30.93 0a6.14 6.14 0 00-2.28.46c-.5.25-.84.66-1.02 1.23a9.15 9.15 0 00-.26 2.53v26.27h-1.01l-18.48-28.56v23.24c0 1.14.1 2 .28 2.55.2.56.57.96 1.13 1.2.55.26 1.42.41 2.6.47v.88a57.79 57.79 0 00-4.5-.13c-1.76 0-3.12.04-4.09.13v-.88a6.14 6.14 0 002.29-.46c.5-.25.84-.66 1.01-1.23.18-.58.27-1.42.27-2.53V294.5c0-1.11-.1-1.92-.27-2.42s-.5-.83-.99-1.01a8.76 8.76 0 00-2.3-.35v-.88c.96.09 2.32.13 4.08.13 1.32 0 2.47-.04 3.44-.13l15.53 23.93v-18.83c0-1.14-.1-2-.29-2.55-.19-.56-.56-.96-1.12-1.21a7.69 7.69 0 00-2.6-.46v-.88c1.06.09 2.56.13 4.5.13 1.75 0 3.12-.04 4.08-.13v.88zm27.24-.88c-.2 2.08-.31 3.96-.31 5.63 0 1.47.04 2.67.13 3.6h-1.01a27 27 0 00-.88-5.03 4.12 4.12 0 00-1.85-2.42c-.88-.51-2.23-.77-4.05-.77h-2.37v25.04c0 1.23.11 2.12.35 2.68.23.56.64.94 1.23 1.14.59.2 1.54.34 2.86.4v.88c-1.53-.09-3.68-.13-6.47-.13-2.93 0-5.1.04-6.51.13v-.88c1.32-.06 2.27-.2 2.86-.4.59-.2 1-.58 1.23-1.14.24-.56.35-1.45.35-2.68v-25.04h-2.37c-1.82 0-3.17.26-4.05.77a4.12 4.12 0 00-1.85 2.42 27 27 0 00-.88 5.04h-1.01c.09-.94.13-2.14.13-3.61 0-1.67-.1-3.55-.3-5.63 2.43.09 6.56.13 12.4.13 5.81 0 9.93-.04 12.37-.13zm25.25 25.52c0 1.67.1 3.55.3 5.63-1.99-.09-5.35-.13-10.07-.13-5.63 0-9.89.04-12.76.13v-.88a8.76 8.76 0 002.31-.35c.48-.18.81-.52.99-1.01.18-.5.26-1.3.26-2.42V294.5c0-1.11-.08-1.92-.26-2.42s-.5-.83-.99-1.01a8.76 8.76 0 00-2.31-.35v-.88a453.63 453.63 0 0021.96 0c-.2 1.93-.31 3.66-.31 5.19 0 1.14.04 2.05.13 2.73h-1.01c-.2-1.9-.47-3.32-.8-4.25a3.55 3.55 0 00-1.62-2.02c-.76-.43-1.92-.64-3.48-.64h-3.65c-1.06 0-1.83.08-2.31.24-.48.16-.81.5-.99 1-.18.5-.26 1.3-.26 2.41v10.39h2.9c1.03 0 1.82-.25 2.38-.73.55-.48.93-1.06 1.12-1.72.19-.66.34-1.48.46-2.48l.13-.88h1.01a58.51 58.51 0 00-.13 4.13v2.12c0 1.5.09 3.57.27 6.24h-1.02l-.26-2.13a4.33 4.33 0 00-1.21-2.75 3.87 3.87 0 00-2.75-.92h-2.9v10.56c0 1.11.08 1.92.26 2.42s.5.82.99.99c.48.16 1.25.24 2.31.24h3.21c1.82 0 3.2-.24 4.16-.73a4.37 4.37 0 002.09-2.33c.44-1.07.76-2.65.97-4.73h1.01c-.09.8-.13 1.85-.13 3.17zm31.06 3.43a7.63 7.63 0 01-2.03 2.16c-.67.44-1.57.66-2.68.66-1.2 0-2.2-.36-2.97-1.06-.78-.7-1.36-1.94-1.74-3.7l-.97-4.4a29.5 29.5 0 00-.99-3.52 4.53 4.53 0 00-1.38-1.98 4.02 4.02 0 00-2.6-.74h-4.18v10.12c0 1.11.09 1.92.27 2.42.17.5.5.83.99 1 .48.18 1.25.3 2.3.36v.88a91.07 91.07 0 00-5.58-.13c-2.52 0-4.4.04-5.63.13v-.88a8.76 8.76 0 002.3-.35c.49-.18.82-.52 1-1.01.17-.5.26-1.3.26-2.42V294.5c0-1.11-.09-1.92-.26-2.42-.18-.5-.51-.83-1-1.01a8.76 8.76 0 00-2.3-.35v-.88c1.23.09 3.02.13 5.36.13l4.76-.04c.55-.03 1.18-.05 1.89-.05 3.4 0 6.02.71 7.85 2.14a6.68 6.68 0 012.75 5.52c0 1.14-.27 2.3-.81 3.45a8.22 8.22 0 01-2.73 3.13 11.44 11.44 0 01-5 1.87l.53.08c1.94.33 3.35.91 4.23 1.76.88.85 1.52 2.2 1.93 4.05l1.1 4.49c.3 1.35.6 2.29.93 2.82.32.52.76.79 1.32.79.5 0 .91-.13 1.25-.4.34-.26.73-.69 1.17-1.27l.66.48zm-16.28-28.07c-.91 0-1.6.1-2.05.3-.45.21-.77.58-.94 1.1a8 8 0 00-.27 2.38v10.83h2.95c2.9 0 4.9-.65 5.98-1.94 1.09-1.3 1.63-3.08 1.63-5.37 0-2.4-.57-4.22-1.71-5.45-1.15-1.24-3.01-1.85-5.6-1.85zm28.42 0a8.76 8.76 0 00-2.31.35c-.49.18-.82.51-1 1.01-.17.5-.26 1.3-.26 2.42v21.83c0 1.11.1 1.92.27 2.42s.5.83.99 1c.48.18 1.25.3 2.3.36v.88a91.07 91.07 0 00-5.58-.13c-2.52 0-4.4.04-5.63.13v-.88a8.76 8.76 0 002.3-.35c.5-.18.82-.52 1-1.01.17-.5.26-1.3.26-2.42V294.5c0-1.11-.09-1.92-.26-2.42-.18-.5-.5-.83-1-1.01a8.76 8.76 0 00-2.3-.35v-.88c1.23.09 3.1.13 5.63.13 2.35 0 4.2-.04 5.59-.13v.88zm17.42-1.5c2.78 0 5.23.63 7.32 1.9a12.63 12.63 0 014.89 5.47 19.45 19.45 0 011.74 8.56c0 3.23-.6 6.09-1.79 8.58a13.81 13.81 0 01-4.97 5.8 13.01 13.01 0 01-7.24 2.08c-2.78 0-5.22-.63-7.32-1.9a12.63 12.63 0 01-4.89-5.47 19.45 19.45 0 01-1.73-8.56c0-3.23.59-6.09 1.78-8.58a13.81 13.81 0 014.97-5.81 13.01 13.01 0 017.24-2.07zm-.18.8a7.1 7.1 0 00-4.95 1.95 12.66 12.66 0 00-3.3 5.48 25.58 25.58 0 00-1.16 8.05c0 3.05.43 5.74 1.3 8.05.86 2.32 2.03 4.11 3.5 5.37a7.37 7.37 0 004.92 1.9 7.1 7.1 0 004.95-1.96 12.66 12.66 0 003.3-5.48 25.58 25.58 0 001.17-8.05c0-3.05-.44-5.74-1.3-8.06a12.82 12.82 0 00-3.5-5.36 7.37 7.37 0 00-4.93-1.9zm45.1 28.77a7.63 7.63 0 01-2.03 2.16c-.67.44-1.57.66-2.68.66-1.2 0-2.2-.36-2.97-1.06-.78-.7-1.36-1.94-1.74-3.7l-.97-4.4a29.5 29.5 0 00-.99-3.52 4.53 4.53 0 00-1.38-1.98 4.02 4.02 0 00-2.6-.74h-4.18v10.12c0 1.11.09 1.92.27 2.42.17.5.5.83.99 1 .48.18 1.25.3 2.3.36v.88a91.07 91.07 0 00-5.58-.13c-2.52 0-4.4.04-5.63.13v-.88a8.76 8.76 0 002.3-.35c.49-.18.82-.52 1-1.01.17-.5.26-1.3.26-2.42V294.5c0-1.11-.09-1.92-.26-2.42-.18-.5-.51-.83-1-1.01a8.76 8.76 0 00-2.3-.35v-.88c1.23.09 3.02.13 5.36.13l4.76-.04c.55-.03 1.18-.05 1.89-.05 3.4 0 6.02.71 7.85 2.14a6.68 6.68 0 012.75 5.52c0 1.14-.27 2.3-.81 3.45a8.22 8.22 0 01-2.73 3.13 11.44 11.44 0 01-5 1.87l.53.08c1.94.33 3.35.91 4.23 1.76.88.85 1.52 2.2 1.93 4.05l1.1 4.49c.3 1.35.6 2.29.93 2.82.32.52.76.79 1.32.79.5 0 .91-.13 1.25-.4.34-.26.73-.69 1.17-1.27l.66.48zm-16.28-28.07c-.91 0-1.6.1-2.05.3-.45.21-.77.58-.94 1.1a8 8 0 00-.27 2.38v10.83h2.95c2.9 0 4.9-.65 5.98-1.94 1.09-1.3 1.63-3.08 1.63-5.37 0-2.4-.57-4.22-1.71-5.45-1.15-1.24-3.01-1.85-5.6-1.85zM71 339h368v3H71v-3z" fill="#9FA9B7" fill-rule="evenodd"/></svg>