<svg width="512" height="512" xmlns="http://www.w3.org/2000/svg"><path d="M249.26 136.7c.5-5.5.9-6.7 2.3-6.7 3 0 7 4 10.3 10.4 2.9 5.6 4.2 8.21 4.2 15.38 0 7.16-1.2 10.02-4.8 17.22-5.9 11.5-12.6 19.6-27.7 33.5-9.8 8.9-13.7 14.1-16.6 22.2-2.3 6.3-2.6 8.3-2.2 15.5 1.1 18.3 11 31.6 28 37.5 15.7 5.5 33.5.7 45-12.1 4.1-4.6 8.9-15.2 9.5-20.9.7-6.9-.9-12.4-5.3-18.1-3.4-4.5-11-10.3-12.1-9.2-.3.2.6 2 2 3.8 8.7 11.4 6.5 30.8-4.6 40.4-7.5 6.4-11.2 7.8-20.8 7.9-7.6 0-9.2-.3-14.4-3-11.6-6-18.4-18.3-17.1-30.9 1.2-10.2 3.5-13.7 21-31.1 8.9-8.8 17.2-17.4 18.4-19l2.3-3-.6 5c-.4 2.7-1.1 5.7-1.5 6.5-.5.8-6.4 6.9-13.2 13.5-16.6 16.2-19.2 19.9-19.6 29.2-.5 8.6.7 12.7 5.3 18.1 14.7 17.1 43.4 7.2 43.7-15.2.2-10.8-4.8-19.3-13.9-23.7l-4.7-2.3 3.9-1.8c11.3-5.2 27.1 2.2 34.1 15.9 9.2 18.2-1.7 43.6-23.1 53.8-26.3 12.7-58-.7-66.5-28.1-2.9-9.6-3.3-15.1-1.7-22.9 2.8-13.3 5.5-17.4 23.2-35 8.8-8.8 17.9-18.9 20.2-22.4 7.1-10.6 8.8-20.7 5.2-30.9-1.5-4.2-2.7-4-3.5.5-.9 4.9-6.6 18.3-9.6 22.5-5.6 8.1-11.2 14.2-24.4 27.3-15.2 15-18.5 20-21.5 32.5-1.7 7.4-1.5 20.1.4 27.7 4.5 17.4 18 33 33.7 39 11.1 4.3 13.5 4.8 24 4.7 9.1-.1 11.6-.5 18.8-3.2 14.2-5.3 26.6-16.2 33.1-29 2.8-5.4 5.63-18.34 6.1-23.4.1-1.07.17-2.26.22-3.56 1.22.44 2.25 1.53 3.08 3.26 2.3 4.9 2.1 10.8-.8 18.8-9.4 26.8-33.1 43.7-61.2 43.7-11.4 0-17.8-1.3-26.8-5.5-17.4-8-30.1-22.5-35.7-40.5-2.9-9.6-3.2-25.3-.5-34.9 3.8-13.9 6.9-18.3 24.3-35.6 9.1-8.9 18.2-19 20.7-22.7 5.7-8.6 10.8-22.3 11.4-31.1zM109.08 354.38h.19l12.49-14.32h7.99l-14.02 16.03 10.15 11.96h4.88v5.72l.1.11h-.1v6.68h-6.42v-6.68h-2.32l-12.75-14.86h-.2v14.86H102v-33.82h7.08v14.32zm32.7 19.9c-4.79 0-8.42-3.1-8.42-7.62 0-4.57 3.51-7.21 9.8-7.59l6.32-.37v-1.67c0-2.34-1.64-3.7-4.24-3.7-2.55 0-4.17 1.26-4.5 3.12h-6.26c.26-4.88 4.41-8.23 11.07-8.23 6.44 0 10.66 3.33 10.66 8.39v17.27h-6.63v-3.84h-.14c-1.4 2.67-4.53 4.24-7.67 4.24zm2.24-4.94c3 0 5.46-1.95 5.46-4.67v-1.83l-5.3.33c-2.55.19-4 1.34-4 3.12 0 1.87 1.55 3.05 3.84 3.05zm27.21 5.08c-6.07 0-10.8-2.55-11.32-8.3h6.5c.49 2.16 2.15 3.2 4.7 3.2 2.8 0 4.34-1.2 4.34-3 0-1.98-1.47-2.98-4.36-2.98h-3.4v-4.2h3.36c2.79 0 3.89-1.15 3.89-2.86 0-1.66-1.17-2.9-3.8-2.9-2.5 0-3.91 1.12-4.2 3.07h-6.4c.52-4.93 3.97-8.23 10.88-8.23 6.24 0 10.13 2.65 10.13 7.12 0 2.75-1.71 4.71-4.62 5.37v.19c3.63.68 5.3 2.76 5.3 5.62 0 4.67-4.15 7.9-11 7.9zm22.8-.54h-7.1v-33.82h21.8v5.86h-14.7v27.96zm31-7.68h6.27c-.75 4.92-5.25 8.22-11.46 8.22-7.73 0-12.37-4.94-12.37-12.98 0-8.02 4.71-13.22 12.14-13.22 7.29 0 11.9 4.94 11.9 12.58v2.1H214.2v.41c0 3.59 2.3 6.05 5.76 6.05 2.53 0 4.45-1.24 5.06-3.16zm-5.35-12.92c-3 0-5.18 2.27-5.4 5.42h10.65c-.12-3.22-2.2-5.42-5.25-5.42zm30.4-4.92c6.35 0 10.26 4.85 10.26 12.96 0 8.09-3.89 12.96-10.17 12.96-3.65 0-6.47-1.78-7.78-4.62h-.14v12.43h-6.84v-33.33h6.75v4.38h.11c1.39-2.95 4.18-4.78 7.8-4.78zm-2.32 20.41c3.44 0 5.58-2.88 5.58-7.45 0-4.55-2.16-7.48-5.58-7.48-3.33 0-5.53 2.98-5.56 7.48.03 4.55 2.2 7.45 5.56 7.45zm52.85 5.11h-6.3v-22.83h-.17l-9.21 22.83h-4.43l-9.21-22.83h-.17v22.83h-6.3v-33.82H273l9.63 24.28h.19l9.61-24.28h8.18v33.82zm7.52 3.52v-3.52h4.85v-.07l-9.23-25.05h7.34l5.18 17.3h.25l5.11-17.3h7.2l-9.1 25.03v.1h4.7v3.5h-4.7v4.7h-6.75v-4.7h-4.85zm39.75-3.52V363.6h-9.6v10.3h-6.85v-25.13h6.84v9.65h9.61v-9.65h6.85v25.12h-6.85zm19.15.4c-4.78 0-8.41-3.1-8.41-7.62 0-4.57 3.51-7.21 9.8-7.59l6.32-.37v-1.67c0-2.34-1.64-3.7-4.24-3.7-2.55 0-4.17 1.26-4.5 3.12h-6.26c.26-4.88 4.4-8.23 11.06-8.23 6.45 0 10.67 3.33 10.67 8.39v17.27h-6.63v-3.84h-.14c-1.41 2.67-4.53 4.24-7.67 4.24zm2.25-4.94c3 0 5.46-1.95 5.46-4.67v-1.83l-5.3.33c-2.55.19-4 1.34-4 3.12 0 1.87 1.54 3.05 3.84 3.05zM389.72 338h4.26c.05 2.37 1.57 4.17 4.15 4.17 2.56 0 4.08-1.8 4.13-4.17h4.26c-.07 4.27-3.2 7.57-8.39 7.57-5.2 0-8.34-3.3-8.41-7.57zm3.26 35.88h-6.7v-25.12H393v15.68h.19l9.96-15.68h6.7v25.12h-6.73V358h-.18l-9.96 15.9z" fill="#9FA9B7" fill-rule="evenodd"/></svg>