<svg width="512" height="512" xmlns="http://www.w3.org/2000/svg"><path d="M251.49 367.76l-7.38 21.68v1.34H250v5.1h-5.89v5.08h-9.76v-5.09h-5.66v-5.09h5.66v-1.34l-8.41-21.68h9.5l3.91 11.87 3.65-11.87h8.49zM97 359.8h10.94v11.63l7.28-11.63h11.98l-9.12 13.43 7.62 11.23h3.2v8.5H120v-3.54h-3.86l-8.2-11.94v11.94H97V359.8zm86.2-.46h14.43l5.57 18.3 5.54-18.3h14.38v30.08h-8.96v-22.94l-6.94 22.94h-8.11l-6.93-22.94v22.94h-8.98v-30.08zm71.65 8.42h9.01v7.03h5.9v-7.03h9.02v21.13h-9.01v-8.92h-5.9v8.92h-9.02v-21.13zm79.16 0v21.13h-7.47v-11.24L319 388.89h-7.77v-21.13h7.47v11.25l7.54-11.25H334zM314.8 358h3.33c.17.98.64 1.74 1.4 2.26a5.5 5.5 0 003.1.78c1.3 0 2.32-.26 3.09-.78a3.26 3.26 0 001.42-2.26h3.33a6 6 0 01-2.17 4.66c-1.35 1.07-3.24 1.6-5.66 1.6-2.43 0-4.32-.53-5.67-1.6a6 6 0 01-2.17-4.66zm24.71 30.9v-29.2h24.16v7.53h-13.09v21.66h-11.07zm58.17-13.18c1.28 0 2.56.12 3.75.02 4.55-.4 4.48-3.91-.11-4.2-2.3 0-5.36.83-6.9 1.5v-4.88c3.2-.6 7.03-1.05 10.41-.98 4.23.2 9.93.4 10.4 5.62 0 2.49-1.53 4.06-4.57 4.7 3.43.76 5.15 2.56 5.15 5.4-.22 5.55-6.18 6.09-10.57 6.52-3.86.28-7.2-.12-10.87-1.03v-6.23c2.5.88 5.2 2.15 7.95 1.72 4.39-.82 4.13-3.45-.2-4.06-1.48-.11-3.12.07-4.44.07v-4.17zm-19.29-8.48c4.22 0 8.27.77 10.13 2.28 1.88 1.5 2.82 3.92 2.82 7.3v12.06h-8.55v-3.13a9.46 9.46 0 01-3.38 2.82c-1.26.58-2.77.88-4.56.88a8.84 8.84 0 01-5.89-1.93 6.24 6.24 0 01-2.28-4.97c0-2.47.94-4.28 2.82-5.44 1.9-1.16 4.86-1.74 8.9-1.74h4.4c-.01-2.98-3.45-3.82-5.77-3.64-2.86.11-5.7.43-8.29 1.74v-5.16c3.18-.63 6.4-1.1 9.65-1.07zm4.4 12.15c-3.47-.33-6.09-.25-6.4 2.51.25 2.36 2.33 2.92 4.68 1.47.97-1.29 1.88-2.31 1.72-3.98zm-221.06-3.67c1.28 0 2.56.12 3.75.02 4.55-.4 4.48-3.91-.1-4.2-2.3 0-5.37.83-6.91 1.5v-4.88c3.2-.6 7.03-1.05 10.41-.98 4.23.2 9.93.4 10.4 5.62 0 2.49-1.53 4.06-4.57 4.7 3.43.76 5.15 2.56 5.15 5.4-.22 5.55-6.18 6.09-10.57 6.52-3.86.28-7.2-.12-10.87-1.03v-6.23c2.5.88 5.2 2.15 7.95 1.72 4.39-.82 4.13-3.45-.2-4.06-1.48-.11-3.12.07-4.44.07v-4.17zm-19.29-8.48c4.22 0 8.27.77 10.13 2.28 1.88 1.5 2.82 3.92 2.82 7.3v12.06h-8.55v-3.13a9.46 9.46 0 01-3.38 2.82c-1.26.58-2.77.88-4.56.88a8.84 8.84 0 01-5.89-1.93 6.24 6.24 0 01-2.28-4.97c0-2.47.94-4.28 2.82-5.44 1.9-1.16 4.86-1.74 8.9-1.74h4.4c-.01-2.98-3.45-3.82-5.77-3.64-2.86.11-5.7.43-8.29 1.74v-5.16c3.18-.63 6.4-1.1 9.65-1.07zm4.4 12.15c-3.47-.33-6.09-.25-6.4 2.51.25 2.36 2.33 2.92 4.68 1.47.97-1.29 1.88-2.31 1.72-3.98zm147.5-12.15c4.22 0 8.27.77 10.13 2.28 1.88 1.5 2.82 3.92 2.82 7.3v12.06h-8.55v-3.13a9.46 9.46 0 01-3.39 2.82c-1.25.58-2.76.88-4.55.88a8.84 8.84 0 01-5.89-1.93 6.24 6.24 0 01-2.28-4.97c0-2.47.94-4.28 2.82-5.44 1.9-1.16 4.86-1.74 8.9-1.74h4.4c-.01-2.98-3.45-3.82-5.77-3.64-2.86.11-5.7.43-8.29 1.74v-5.16c3.18-.63 6.4-1.1 9.65-1.07zm4.4 12.15c-3.47-.33-6.09-.25-6.4 2.51.25 2.36 2.33 2.92 4.68 1.47.97-1.29 1.88-2.31 1.72-3.98zm-39.81-228.91c49.01 1.49 88.32 41.78 88.32 91.3a91.26 91.26 0 01-12.77 46.73l-27.85-25.7a54.94 54.94 0 004.17-21.03c0-30.28-24.46-54.8-54.65-54.8h-.9l-.84-.5c4.64-11 5.67-24.59 4.52-36zm-37.57 6.82c-18.46 15.76-24.34 39.82-24.37 62.68-.03 18.17 4.02 35.35 10.2 46.31a54.93 54.93 0 008.82 12.75v44.77a91.44 91.44 0 01-51.03-82.03 91.43 91.43 0 0156.38-84.48zm.2 112.45c-18.5-20.98-19.4-44.41-14.27-57.83 9.66-25.3 44.67-36.85 49.94-74.65 1.4 93.9-44.87 61.97-35.67 132.48zm-19.5-58.13c-2.96-58.16 45.05-50.9 51.27-100.62 8.14 59.82-45.02 66.3-51.28 100.62zm31.3 75a5.87 5.87 0 01-8.77 5.08 5.87 5.87 0 015.84-10.15 5.87 5.87 0 012.93 5.07zm0 14.88a5.87 5.87 0 01-8.77 5.08 5.87 5.87 0 015.84-10.16 5.87 5.87 0 012.93 5.08zm0 14.87a5.87 5.87 0 01-8.77 5.08 5.87 5.87 0 015.84-10.16 5.87 5.87 0 012.93 5.08zm14.83-29.75a5.87 5.87 0 01-8.77 5.08 5.87 5.87 0 015.84-10.15 5.87 5.87 0 012.93 5.07zm0 14.88a5.87 5.87 0 01-8.77 5.08 5.87 5.87 0 015.84-10.16 5.87 5.87 0 012.93 5.08zm0 14.87a5.87 5.87 0 01-8.77 5.08 5.87 5.87 0 015.84-10.16 5.87 5.87 0 012.93 5.08zm14.83-29.75a5.87 5.87 0 01-8.77 5.08 5.87 5.87 0 015.84-10.15 5.87 5.87 0 012.93 5.07zm0 14.88a5.87 5.87 0 01-8.77 5.08 5.87 5.87 0 015.84-10.16 5.87 5.87 0 012.93 5.08zm0 14.87a5.87 5.87 0 01-8.77 5.08 5.87 5.87 0 015.84-10.16 5.87 5.87 0 012.93 5.08zm14.83-29.75a5.87 5.87 0 01-8.77 5.08 5.87 5.87 0 015.84-10.15 5.87 5.87 0 012.93 5.07zm0 14.88a5.87 5.87 0 01-8.77 5.08 5.87 5.87 0 015.84-10.16 5.87 5.87 0 012.93 5.08zm0 14.87a5.87 5.87 0 01-8.77 5.08 5.87 5.87 0 015.84-10.16 5.87 5.87 0 012.93 5.08zm14.83-29.75a5.87 5.87 0 01-8.77 5.08 5.87 5.87 0 015.84-10.15 5.87 5.87 0 012.93 5.07zm0 14.88a5.87 5.87 0 01-8.77 5.08 5.87 5.87 0 015.84-10.16 5.87 5.87 0 012.93 5.08zm0 14.87a5.87 5.87 0 01-8.77 5.08 5.87 5.87 0 015.84-10.16 5.87 5.87 0 012.93 5.08zm14.83-29.75a5.87 5.87 0 01-8.77 5.08 5.87 5.87 0 015.84-10.15 5.87 5.87 0 012.93 5.07zm0 14.88a5.87 5.87 0 01-8.77 5.08 5.87 5.87 0 015.84-10.16 5.87 5.87 0 012.93 5.08zm0 14.87a5.87 5.87 0 01-8.77 5.08 5.87 5.87 0 015.84-10.16 5.87 5.87 0 012.93 5.08zm0-44.62a5.87 5.87 0 01-8.77 5.08 5.87 5.87 0 015.84-10.16 5.87 5.87 0 012.93 5.08zm0 59.5a5.87 5.87 0 01-8.77 5.07 5.87 5.87 0 015.84-10.15 5.87 5.87 0 012.93 5.07zm14.83-44.63a5.87 5.87 0 01-8.77 5.08 5.87 5.87 0 015.84-10.15 5.87 5.87 0 012.93 5.07zm0 14.88a5.87 5.87 0 01-8.77 5.08 5.87 5.87 0 015.84-10.16 5.87 5.87 0 012.93 5.08zm0 14.87a5.87 5.87 0 01-8.77 5.08 5.87 5.87 0 015.84-10.16 5.87 5.87 0 012.93 5.08zm14.83-14.87a5.87 5.87 0 01-8.77 5.08 5.87 5.87 0 015.84-10.16 5.87 5.87 0 012.93 5.08zm-81.6-108.33c7.95 10.89 19.64 21.31 26.36 34.5 5.9 12.66 8.78 27.93-.41 39.86-4.98 6.02-12.86 10.1-22.61 10.23-18.37.63-27.68-16.23-27.5-27.2-.17-21 21.34-35.65 24.15-57.39zm11.31 28.32c-.55 4.24-4.74 7.1-4.71 11.2-.03 2.14 1.78 5.43 5.36 5.3a5.72 5.72 0 004.42-1.99c1.8-2.33 1.16-5.3 0-7.78-1.3-2.57-3.51-4.6-5.07-6.73z" fill="#9FA9B7" fill-rule="evenodd"/></svg>