<?xml version="1.0" encoding="UTF-8"?>
<svg width="512px" height="512px" viewBox="0 0 512 512" version="1.1" xmlns="http://www.w3.org/2000/svg" xmlns:xlink="http://www.w3.org/1999/xlink">
    <!-- Generator: Sketch 52.5 (67469) - http://www.bohemiancoding.com/sketch -->
    <title>Artboard</title>
    <desc>Created with Sketch.</desc>
    <g id="Artboard" stroke="none" stroke-width="1" fill="none" fill-rule="evenodd">
        <g id="1-(4)" transform="translate(96.000000, 113.000000)" fill="#9FA9B7">
            <path d="M137.989451,286.656574 C136.204468,285.905423 132.436169,283.098488 130.690851,281.161308 C127.041551,277.12881 125.613564,271.514941 126.763887,266.098743 C127.438214,263.015068 129.976858,258.073282 132.515501,254.83147 C136.2838,250.12689 136.125135,250.40363 135.331809,249.494341 C134.062487,248.110641 133.308827,248.545518 130.373521,252.380344 C123.590582,261.236025 122.995588,261.908108 120.694942,263.410411 C117.561304,265.42666 113.51534,266.612689 109.747041,266.652223 C106.335739,266.691757 104.669754,265.98014 103.3211,263.845289 C102.369108,262.263917 101.81378,262.224383 99.7114658,263.687151 C97.6488178,265.070852 94.435847,266.691757 92.9681937,267.047566 C91.1435436,267.482443 88.9618967,266.652223 87.3752445,264.912714 C85.4315955,262.777863 85.5109281,261.354628 87.8512402,254.633799 C89.4378924,250.087355 89.8345555,249.29667 90.5882153,249.178067 C91.460874,249.059464 93.1268589,247.240887 95.0705079,244.275815 C97.0934896,241.19214 99.4338016,240.796797 101.575782,243.168855 C103.797095,245.619981 103.717763,245.896721 98.442144,253.605907 C93.6821872,260.524408 94.039184,261.908108 99.5131342,257.559336 C102.607106,255.068676 103.519431,253.882647 104.749087,250.759438 C106.256406,246.924612 108.279388,244.117678 109.905707,243.564198 C111.532025,243.050252 112.722014,243.287457 114.070669,244.51302 C115.855652,246.133926 115.895319,246.964146 114.150001,249.85015 C112.404684,252.696619 110.421369,258.389556 110.6197,259.852325 C110.897364,261.947643 114.427665,261.5523 117.957967,259.022105 C119.742951,257.717474 124.701239,250.68037 126.40689,247.003681 C127.120884,245.501378 127.874543,242.733977 128.390205,239.80844 C129.381863,234.234105 130.05619,232.889939 132.118838,232.217856 C134.022821,231.585308 135.807805,232.375993 136.164801,233.996899 C137.79112,241.46888 139.29844,242.813046 147.469699,244.157212 C148.263025,244.275815 149.373681,244.789761 149.968676,245.343241 C150.801668,246.133926 151,246.647872 151,248.308312 C151,251.194316 150.206674,251.866399 146.716039,251.866399 C144.336061,251.866399 143.780732,252.024536 142.392412,253.012893 C138.346448,255.93843 134.102153,263.845289 133.665824,269.340555 C133.229495,274.480013 135.292143,277.998565 140.131432,280.370622 C143.185738,281.872925 143.741066,282.821748 142.868407,284.917065 C142.075081,286.775177 140.131432,287.486794 137.989451,286.656574 Z" id="Path"></path>
            <path d="M292.091463,276.415132 C284.501662,274.393245 278.183451,267.534689 275.322374,258.218153 C273.69315,252.985035 273.494464,252.469652 272.858669,252.469652 C271.666554,252.469652 268.169682,256.711649 265.586765,261.270805 C264.11649,263.847719 262.685951,266.14712 262.407791,266.384989 C262.050156,266.662503 260.977253,266.781437 259.665926,266.662503 C257.91749,266.503923 257.202221,266.226409 256.288266,265.354223 L255.09615,264.204523 L252.513234,265.473158 C248.380567,267.495044 245.638702,267.098596 242.261042,264.006299 C241.307349,263.094468 240.353657,262.380861 240.115234,262.380861 C239.916548,262.380861 238.605221,263.451271 237.21442,264.759551 C233.797023,267.891493 232.485696,268.52581 229.227247,268.52581 C225.412478,268.52581 223.107722,267.019306 220.723491,262.975533 C220.326119,262.341216 220.047959,262.420505 217.345831,263.76843 C213.13369,265.909251 210.232876,266.821082 208.802338,266.503923 C205.504152,265.790316 202.245703,262.856599 201.411223,259.922881 C200.815165,257.623481 201.1728,253.698642 202.404652,250.209897 C202.921235,248.624103 204.82862,244.144237 206.577056,240.259043 C208.365229,236.334205 209.795767,232.924749 209.795767,232.647235 C209.795767,232.409366 209.517607,232.250787 209.120235,232.330077 C208.722863,232.409366 207.451274,234.708767 205.623363,238.792184 C201.530434,247.791562 199.106466,251.79569 193.503524,258.535312 C188.059531,265.116354 183.489755,268.248296 176.972858,269.913379 C167.833307,272.252424 160.283243,269.041193 156.428737,261.191516 C155.236622,258.773181 155.157147,258.337088 155.037936,253.460773 C154.918724,249.892738 155.077673,247.1176 155.554519,244.540685 C156.627423,238.276802 159.846134,229.554938 162.548262,225.669745 C163.184057,224.718269 165.647762,219.960888 168.031993,215.084574 C172.840192,205.21301 173.754147,204.06331 178.562345,201.724265 C182.734749,199.662734 187.026364,198.830192 192.15246,199.028416 C196.165915,199.186996 196.841447,199.30593 199.225678,200.495275 C203.55703,202.596451 208.047331,208.622466 209.318921,214.053808 C209.557344,215.044929 209.954716,217.978647 210.193139,220.595206 C210.709722,226.660865 210.828934,227.096959 211.742889,227.096959 C212.338947,227.096959 213.729748,224.995782 217.385568,218.573319 C222.551401,209.534297 225.134318,205.886972 226.723805,205.2923 C228.194081,204.697627 230.73726,204.816562 232.00885,205.490524 C233.439388,206.204131 234.154657,208.067438 233.598337,209.534297 C233.399651,210.089325 231.293581,213.340201 228.90935,216.749657 C223.425619,224.638979 221.200337,228.167369 221.478498,228.603462 C221.597709,228.801686 223.385882,229.991031 225.491953,231.220021 C227.558286,232.449011 229.425933,233.796935 229.664356,234.233029 C230.379625,235.580953 230.141202,237.325326 229.108036,237.999288 C227.955658,238.75254 227.439074,238.554315 222.909036,235.462018 C221.319549,234.351963 219.571113,233.440132 219.094267,233.440132 C218.378998,233.440132 217.743203,234.272673 215.796081,237.721774 C212.656844,243.311696 209.636818,249.694514 208.762601,252.667876 C208.404966,253.976156 208.047331,256.275556 208.047331,257.742415 C207.967857,262.024057 209.040761,262.341216 214.40528,259.764302 C217.623991,258.257798 221.081126,254.887987 222.670613,251.7164 C224.021677,249.060196 226.922491,245.333582 228.829875,243.827078 C232.366484,240.97265 237.572055,239.585081 239.082067,241.091585 C240.154971,242.122351 239.399965,243.43063 236.817048,245.095713 C233.955971,246.919375 229.266984,251.835335 228.114606,254.17438 C227.63776,255.165501 227.280126,256.672005 227.280126,257.78206 C227.280126,259.328208 227.478811,259.883236 228.432504,260.834712 C229.386196,261.786188 229.942516,261.984412 231.492266,261.984412 C233.161228,261.984412 233.518863,261.825833 234.869927,260.358974 C237.651529,257.345967 238.20785,255.006922 237.21442,250.328831 C236.817048,248.465524 236.856785,247.950141 237.452843,246.721151 C238.247587,245.016423 239.598651,244.58033 241.029189,245.531806 C242.41999,246.443637 242.896837,247.751917 244.287638,254.570828 C244.96317,257.78206 245.718176,260.715778 245.956599,261.032936 C247.188452,262.499795 250.16874,261.350095 253.307977,258.218153 C256.407477,255.125856 258.155913,251.993914 260.818304,244.501041 C262.606477,239.505792 264.275438,238.554315 266.858355,241.13123 C268.487579,242.756668 268.527316,243.470275 267.21599,247.315824 C266.659669,248.901617 266.341772,250.328831 266.460983,250.447766 C266.580195,250.5667 267.692836,249.575579 268.924688,248.227655 C271.507605,245.412872 274.607105,243.35134 276.196592,243.35134 C277.547656,243.35134 278.779508,244.818199 279.335829,247.077955 C281.600848,255.879108 283.428758,260.24004 286.448784,263.966654 C288.554854,266.543568 288.594591,266.583213 290.660925,268.169006 C292.727258,269.794445 294.316745,270.587341 298.409674,272.093845 C302.025758,273.441769 302.741027,274.313956 301.310488,275.542945 C299.522315,277.089094 295.866495,277.445897 292.091463,276.415132 Z M177.807339,264.957775 C179.714723,264.125233 183.608967,261.072581 185.436877,258.93176 C189.529806,254.055446 194.179056,245.571451 196.444075,238.831829 C197.755402,234.867346 197.755402,234.233029 196.483812,234.233029 C195.53012,234.233029 187.344262,238.276802 183.966601,240.377978 C182.218166,241.448388 181.184999,241.606968 180.46973,240.893361 C179.754461,240.179754 179.873672,239.148988 180.946576,237.483905 C183.052646,234.153739 186.628992,231.973273 193.503524,229.872097 C195.80828,229.15849 197.993825,228.246659 198.391197,227.889855 C199.384627,226.978024 200.378056,220.357337 200.17937,216.392853 C199.90121,211.992277 198.033562,208.979269 194.298268,207.036673 C192.390883,206.005907 186.94689,206.005907 183.966601,206.997028 C179.714723,208.424242 174.985999,212.190501 173.2773,215.520667 C172.681243,216.630722 172.919666,217.027171 174.389941,217.304685 C175.741006,217.582198 176.933121,219.088702 176.933121,220.595206 C176.933121,221.189878 176.3768,222.180999 175.54232,223.053185 C171.926236,226.898734 168.866474,232.211142 168.866474,234.629477 C168.866474,235.462018 169.224108,237.285681 169.661217,238.67325 C170.098326,240.021174 170.455961,241.646613 170.455961,242.241285 C170.455961,243.232406 170.376486,243.272051 168.985685,243.073827 C168.151204,242.954892 167.197512,242.598089 166.839878,242.320575 C165.449076,241.091585 165.011967,241.606968 163.939064,245.928255 C162.309839,252.469652 162.786685,258.059574 165.290128,261.587964 C167.79357,265.116354 173.634935,266.662503 177.807339,264.957775 Z" id="Shape" fill-rule="nonzero"></path>
            <path d="M30.503125,269.720504 C29.0330357,269.283257 28,268.130516 28,266.977774 C28,264.195294 28.7946429,262.883554 33.4433036,257.994339 C39.68125,251.475387 50.528125,237.761736 56.3290179,229.096299 C58.1566964,226.353569 66.0236607,215.740396 68.2486607,213.037415 C69.4803571,211.487177 71.5861607,211.407677 73.0959821,212.798917 C74.446875,214.070908 74.3674107,215.303149 72.6986607,219.476869 C71.9040179,221.384855 70.9107143,224.286584 70.5133929,225.916322 C69.3214286,230.36829 68.7651786,238.954227 69.2419643,245.632179 C69.6392857,251.236888 70.0763393,252.946126 71.0696429,252.946126 C71.5861607,252.946126 81.2808036,239.629973 87.1214286,230.885036 C92.2071429,223.253091 100.511161,208.744447 106.391518,197.29653 C110.205804,189.823584 111.556696,188.114346 114.21875,187.319352 C115.728571,186.842355 115.966964,186.882105 116.44375,187.55785 C116.761607,187.955347 117,188.631092 117,188.98884 C117,191.73157 105.994196,215.501898 99.0013393,227.903808 C93.915625,236.887242 90.6178571,241.736707 81.4,253.74112 C78.9763393,256.921097 75.8772321,261.253816 74.4866071,263.4003 C71.8642857,267.49452 70.7120536,268.448514 68.4075893,268.448514 C65.5866071,268.448514 64.2357143,265.109538 62.1696429,252.826877 C61.3352679,247.738914 60.540625,242.7702 60.3816964,241.736707 C60.0241071,239.073477 59.1102679,239.192726 57.203125,242.134204 C53.9450893,247.023419 46.35625,256.205602 39.3236607,263.638798 C36.7808036,266.341779 32.2513393,270.078252 31.615625,269.998752 C31.4964286,269.959003 30.9799107,269.839753 30.503125,269.720504 Z" id="Path"></path>
            <path d="M269.898862,201.628528 C258.065139,200.677941 248.812597,198.341079 235.152192,192.875201 C217.044213,185.587362 193.337057,173.071292 173.7995,160.515614 C171.734556,159.168948 169.788742,157.980714 169.510769,157.86189 C169.232795,157.703459 168.00177,158.099537 166.731035,158.693655 C151.958736,165.783454 131.865233,173.506978 108.674313,180.992856 C84.0935259,188.954027 63.007261,194.419906 43.5491257,197.865786 C36.8380546,199.05402 25.5999887,200.559117 24.0115695,200.440294 C23.7335962,200.440294 28.4988538,199.133236 34.6142677,197.548923 C53.5958772,192.597946 54.4695078,192.360299 54.3900868,191.885005 C54.3503763,191.647358 53.9532715,190.142261 53.5164562,188.518341 C50.7367226,178.022269 49.7439606,169.268942 50.021934,157.901498 C50.1410654,153.108952 50.4587493,148.039152 50.6970122,146.61327 C50.8955646,145.187389 51.2926694,142.890136 51.5309322,141.464254 C53.7547191,127.839165 59.949554,112.233685 67.89165,100.113693 C74.2453269,90.4493858 84.014105,79.9929221 93.3857783,72.863515 C107.403578,62.2090122 124.320242,55.0003895 142.626774,51.871372 C147.193479,51.1188235 149.218713,51 159.900832,51 C170.662373,51 172.568476,51.0792156 177.174891,51.871372 C193.059083,54.6043114 206.203252,59.5948963 219.148869,67.8333223 C225.85994,72.1109665 230.744329,75.9925326 236.661191,81.7752739 C241.386738,86.4093885 242.776604,87.8748777 245.834311,91.5980125 C251.155516,98.0144789 257.151798,108.035257 261.678793,118.095642 C262.870107,120.749366 265.213026,127.839165 266.523472,132.948574 C269.422337,143.999154 270.057704,150.098758 269.779731,162.812868 C269.501758,175.526977 268.310443,182.933639 264.815921,194.023827 C264.498237,194.934807 264.537948,195.410101 264.815921,195.568532 C265.054184,195.726964 273.313964,195.885395 283.162163,195.885395 C299.165486,195.925003 301.230431,196.004218 302.580587,196.598336 C303.891033,197.192453 304.089586,197.469708 303.970454,198.380687 C303.771902,200.123431 301.230431,201.153234 295.710674,201.628528 C290.468891,202.14343 276.014276,202.103822 269.898862,201.628528 Z" id="Path"></path>
            <path d="M14.2662321,187.610707 C9.41034312,186.933488 3.10551947,185.539214 2.43979275,185.021341 C1.77406603,184.503468 1.81322643,184.383959 2.9097175,183.467722 C4.04536896,182.471812 11.5641649,177.691445 11.9557688,177.691445 C12.0340896,177.691445 12.7781371,177.253245 13.6005054,176.775208 C15.3627232,175.619953 22.4899151,172.632223 25.2311428,171.875332 C28.2856537,170.998931 33.2590239,170.720076 35.060402,171.317622 C36.9009406,171.915168 37.7624693,172.632223 38.9764416,174.584206 C40.307895,176.695535 40.3470554,181.356393 39.0547624,183.26854 C37.8016297,185.101014 34.6687981,186.774143 31.1052021,187.451361 C27.8157289,188.088744 18.2997529,188.208253 14.2662321,187.610707 Z" id="Path"></path>
            <path d="M287.545853,188.446081 C284.379183,187.751291 281.687513,186.075622 280.697929,184.195603 C279.550011,182.029494 279.866678,177.002486 281.291679,175.081597 C282.795848,173.038098 284.775017,172.179828 288.495854,172.016348 C292.414609,171.852868 297.520865,172.915488 303.379205,175.204207 C310.741713,178.065105 319.529223,182.887763 318.975056,183.786903 C318.618805,184.399953 311.493797,186.566062 306.822959,187.506071 C298.787533,189.100001 291.860441,189.42696 287.545853,188.446081 Z" id="Path"></path>
            <path d="M170.685653,176.75 C169.425546,174.9625 168.244197,173.5 168.086683,173.5 C167.889792,173.5 165.881497,174.678125 163.558176,176.140625 C161.274233,177.603125 159.22656,178.78125 159.069047,178.78125 C158.911533,178.78125 158.005832,177.2375 157.10013,175.328125 C155.879402,172.76875 155.249349,171.875 154.698053,171.875 C154.264891,171.875 148.791304,172.890625 142.569528,174.109375 C136.347753,175.328125 130.716652,176.425 130.047221,176.546875 C129.417168,176.66875 135.166403,174.55625 142.845177,171.875 C150.52395,169.19375 156.903239,167 157.021374,167 C157.139509,167 157.927075,168.178125 158.793398,169.640625 C159.659722,171.0625 160.565423,172.240625 160.762315,172.28125 C160.998585,172.28125 162.928123,171.184375 165.093931,169.84375 C167.259738,168.503125 169.149898,167.40625 169.268033,167.40625 C169.425546,167.40625 170.528139,168.70625 171.788246,170.25 L173.993432,173.134375 L176.789293,170.49375 L179.545776,167.853125 L181.554071,169.03125 C182.696042,169.721875 187.106415,172.321875 191.359274,174.8 C195.651511,177.278125 199.077426,179.390625 198.998669,179.471875 C198.959291,179.553125 194.667053,178.2125 189.508492,176.546875 L180.097073,173.459375 L176.907428,176.75 C175.174782,178.5375 173.560271,180 173.363379,180 C173.127109,180 171.945759,178.5375 170.685653,176.75 Z" id="Path"></path>
            <path d="M287.239607,159.757733 C283.66032,158.988513 281.751367,157.004737 281.154819,153.40155 C279.723104,144.170916 288.233854,141.053553 306.170061,144.170916 C311.658302,145.142562 319.055496,147.247794 319.890663,148.097984 C320.526981,148.705263 318.419178,150.162731 312.692318,153.077668 C302.670313,158.178809 292.369919,160.850834 287.239607,159.757733 Z" id="Path"></path>
            <path d="M23.2798843,159.38657 C19.4399034,158.651749 13.8399312,156.97799 9.59995231,155.304232 C5.35997337,153.630474 0,151.017778 0,150.650367 C0,149.670606 11.9199408,145.547445 18.9999056,144.077804 C32.19984,141.301814 39.9598015,143.955334 39.9998013,151.262718 C40.0398011,158.447632 34.0398309,161.386915 23.2798843,159.38657 Z" id="Path"></path>
            <path d="M280.485749,132.407701 C278.697331,131.52932 277.624281,130.211748 276.630715,127.616531 C275.716635,125.300799 275.79612,123.663815 276.869171,121.547715 C279.213985,116.796471 288.990668,113.921768 302.344185,114.001621 C308.34532,114.001621 313.511859,114.400886 313.949028,114.880003 C314.823365,115.758384 304.251831,124.302638 297.416101,128.255354 C290.182946,132.407701 283.824128,133.964832 280.485749,132.407701 Z" id="Path"></path>
            <path d="M33.814433,131.887604 C29.7793814,131.361011 23.3546392,128.64703 17.0474227,124.798847 C13.4041237,122.570952 6,116.899947 6,116.373354 C6,114.591038 25.4309278,113.213794 32.443299,114.510023 C40.8268041,116.049296 44,118.560742 44,123.624139 C44,126.621671 42.4721649,129.902752 40.5525773,131.036953 C39.2206186,131.80659 36.1257732,132.211662 33.814433,131.887604 Z" id="Path"></path>
            <path d="M271.212906,106.651017 C268.347797,105.55572 266,101.956888 266,98.5927614 C266,95.6198127 267.949866,93.2727479 272.645461,90.4953878 C278.01754,87.3268503 289.79632,83.9627241 298.351854,83.1021336 C301.734274,82.7500739 301.81386,83.1412514 298.948751,86.9747906 C296.282608,90.5736233 294.92964,92.0992154 290.512598,96.5586386 C282.752928,104.460423 275.510569,108.215727 271.212906,106.651017 Z" id="Path"></path>
            <path d="M45.7032967,106.876252 C41.7076923,106.206065 35.8131868,102.736863 30.0373626,97.6907522 C24.8945055,93.1571366 19,86.770652 19,85.6668152 C19,84.9572058 20.621978,84.8389376 25.1714286,85.1937423 C37.0791209,86.1793109 47.3252747,89.1754394 52.2703297,93.1571366 C53.6945055,94.3398189 55,96.8234518 55,98.4397843 C55,103.958969 50.8461538,107.743552 45.7032967,106.876252 Z" id="Path"></path>
            <path d="M61.0670632,83.65669 C60.0705711,83.3775195 58.2768852,82.5001264 57.0810946,81.7024962 C54.8888119,80.2268805 49.8266317,75.2416923 47.9133667,72.6892759 C47.3553311,71.9315273 46.7175762,71.1338972 46.478418,70.8946081 C44.2861353,68.4219548 37.5099886,56.5771475 38.0281645,56.0586879 C38.5463405,55.5402283 48.6707008,58.5712228 53.2944244,60.6450611 C58.2370255,62.8385439 59.8712726,63.7159371 62.8607491,65.6701309 C69.8760539,70.256504 72.3872142,74.7631142 70.2746508,78.9107908 C69.357878,80.7453401 66.1292434,83.7763345 65.1726109,83.7763345 C64.7740141,83.7763345 64.0963994,83.8560976 63.6579429,83.9757421 C63.2194863,84.0555051 62.0635554,83.9358606 61.0670632,83.65669 Z" id="Path"></path>
            <path d="M254.886611,83.5450533 C253.472954,82.7614924 251.509542,80.724234 250.684908,79.1571121 C249.07491,76.0620464 250.292226,72.6535563 254.454661,68.5790395 C257.556853,65.5231518 260.580508,63.5250715 266.549283,60.3908277 C272.871472,57.0998718 281,54.1615183 281,55.2193255 C281,55.7678182 279.115124,60.0774033 277.230248,63.7993178 C272.792935,72.5360222 265.842454,81.1943705 261.680019,83.1532729 C259.63807,84.093546 256.221732,84.2894362 254.886611,83.5450533 Z" id="Path"></path>
            <path d="M236.433657,65.7424262 C233.805114,64.8721643 231.41553,63.0920832 230.459696,61.3120021 C229.702994,59.8483799 229.902126,56.1695456 230.897786,54.1521204 C233.167892,49.4052374 238.863068,43.3529617 246.191127,37.8940463 C250.3729,34.769015 254.873284,32 255.709639,32 C257.02391,32 253.638665,45.3703869 250.333073,52.9653996 C246.430085,62.0635919 240.814562,67.2456058 236.433657,65.7424262 Z" id="Path"></path>
            <path d="M79.8596596,65.3029235 C76.7752098,63.8931949 72.6230658,58.7376161 69.5781602,52.4945324 C67.2845949,47.8625671 64.7537643,41.0153139 63.6069816,36.3833486 C62.8556413,33.4430576 62.8160971,33 63.4092605,33 C64.6351316,33 76.5774886,40.0486429 78.5942443,41.981985 C78.8710539,42.2639307 79.7014827,42.908378 80.452823,43.4722695 C83.3395517,45.6472793 87.8080495,50.4403565 89.1920975,52.8167561 C92.2370031,58.0126129 91.4461186,61.7584631 86.7403554,64.859866 C84.6840555,66.2293166 82.2323133,66.3501505 79.8596596,65.3029235 Z" id="Path"></path>
            <path d="M104.80878,50.7287572 C101.882547,49.8640348 98.0589359,44.086117 96.1861468,37.7972268 C95.0936865,34.181115 93.8841769,28.0101415 93.3769632,23.8437518 C92.9087659,19.6380565 92.8697495,15 93.2989303,15 C94.3133577,15 102.194678,22.3108348 106.681569,27.3812525 C108.593374,29.582364 112.221903,34.8886151 113.392397,37.2076434 C114.757972,39.9590328 115.343218,43.3786168 114.796988,45.4225061 C113.821577,49.0779235 108.554358,51.9079241 104.80878,50.7287572 Z" id="Path"></path>
            <path d="M212.269582,50.4946646 C203.61628,47.3417778 205.672895,37.1737179 218.051385,22.2763278 C220.88408,18.8081524 225.734585,14 226.35545,14 C227.441963,14 227.092727,25.5474479 225.773389,33.7055425 C223.600363,46.8688448 218.827465,52.8593297 212.269582,50.4946646 Z" id="Path"></path>
            <path d="M128.462973,40.8088694 C123.993169,37.1560687 122.020013,25.8403275 123.469679,12.4202555 C124.194512,5.59110648 124.556928,4.12204535 125.362298,4.00293229 C126.489816,3.80441051 133.536804,13.7304993 136.838821,20.2817178 C139.536811,25.5226927 140.62406,28.6990411 140.90594,32.1136156 C141.187819,35.9252337 140.865671,37.6722253 139.536811,39.2603995 C137.966339,41.0867998 135.671035,42 132.57036,42 C130.234787,42 129.791833,41.8808869 128.462973,40.8088694 Z" id="Path"></path>
            <path d="M184.155708,41.3398643 C182.334167,40.3818442 181.542193,39.5435766 180.750218,37.8271239 C178.84948,33.6757035 180.591824,25.5325327 185.62086,15.1938992 C187.284006,11.7609939 191.085483,5.41411079 192.471438,3.81741064 C193.303011,2.77955554 193.382208,2.77955554 193.738596,3.53798811 C194.451373,4.89518324 195.797729,11.3219014 196.431309,16.4712594 C198.015257,29.5242831 196.233315,39.1444016 191.798259,41.4596168 C190.333107,42.2180494 185.660459,42.1781319 184.155708,41.3398643 Z" id="Path"></path>
            <path d="M158.069182,39.569654 C156.327189,39.0471325 154.110108,36.6354944 153.476656,34.6257961 C152.684841,31.8926063 152.922386,21.6431446 153.872564,17.1012262 C155.416602,9.98689401 159.098541,-0.503731488 159.890356,0.0187900888 C160.405035,0.300147861 163.33475,6.57040678 164.95797,10.8309673 C168.402364,19.87461 169.867222,29.6417441 168.481546,34.4650202 C167.254233,38.8461626 162.899252,40.9764429 158.069182,39.569654 Z" id="Path"></path>
        </g>
    </g>
</svg>